# xmcd CD database file
#
# Track frame offsets:
#	150
#	15905
#	28052
#	29212
#	39850
#	60527
#	61432
#	74012
#	88642
#	89777
#	109035
#	122882
#	134437
#	153837
#	155322
#	164870
#	180215
#	189287
#	198475
#	211852
#	229275
#	237130
#	242907
#	248320
#	254830
#	265325
#
# Disc length: 3669 seconds
#
# Revision: 0
# Processed by: cddbd v1.5.2PL0 Copyright (c) Steve Scherf et al.
# Submitted via: CDex 1.51
#
DISCID=6e0e531a
DTITLE=Lee Wiley - The Carnegie Hall Concert
DYEAR=1972
DGENRE=Jazz
TTITLE0=Introduction
TTITLE1=(Back Home In) Indiana
TTITLE2=Announcement
TTITLE3=When I Fall In Love
TTITLE4=You're Lucky To Me
TTITLE5=Announcement
TTITLE6=A Love Like This
TTITLE7=Moon River
TTITLE8=Announcement
TTITLE9=Come Sunday
TTITLE10=I'm Coming, Virginia
TTITLE11=A Woman's Intuition
TTITLE12=Sugar
TTITLE13=Announcement
TTITLE14=Manhattan
TTITLE15=Someone To Watch Over Me
TTITLE16=Street of Dreams
TTITLE17=Some Sunny Day
TTITLE18=Chicken Today and Feathers Tomorrow
TTITLE19=A Ghost of a Chance
TTITLE20=Any Time, Any Day, Anywhere
TTITLE21='S Wonderful
TTITLE22=Somebody Loves Me
TTITLE23=Soft Lights and Sweet Music
TTITLE24=The Man I Love
TTITLE25=Any Time, Any Day, Anywhere
EXTD=YEAR: 1972
EXTT0=
EXTT1=
EXTT2=
EXTT3=
EXTT4=
EXTT5=
EXTT6=
EXTT7=
EXTT8=
EXTT9=
EXTT10=
EXTT11=
EXTT12=
EXTT13=
EXTT14=
EXTT15=
EXTT16=
EXTT17=
EXTT18=
EXTT19=
EXTT20=
EXTT21=
EXTT22=
EXTT23=
EXTT24=
EXTT25=
PLAYORDER=
